<?xml version="1.0" encoding="UTF-8"?>
<svg width="24px" height="22px" viewBox="0 0 24 22" version="1.1" xmlns="http://www.w3.org/2000/svg" xmlns:xlink="http://www.w3.org/1999/xlink">
    <title>stellar</title>
    <g id="Page-1" stroke="none" stroke-width="1" fill="none" fill-rule="evenodd">
        <g id="stellar" transform="translate(0, 0.8471)" fill="#FFFFFF" fill-rule="nonzero">
            <path d="M12.283,0.00394945486 C9.54181972,-0.0724791063 6.88626921,0.963064621 4.92046183,2.87500394 C2.95465445,4.78694327 1.84574493,7.41270392 1.846,10.1549495 C1.846,10.4139495 1.856,10.6709495 1.876,10.9279495 C1.93204974,11.6710026 1.53610077,12.3749557 0.872,12.7129495 L0,13.1579495 L0,15.2319495 L2.568,13.9229495 L3.4,13.4989495 L4.22,13.0819495 L18.93,5.58594945 L20.583,4.74394945 L24,3.00294945 L24,0.928949455 L20.613,2.65694945 L17.723,4.12994945 L3.768,11.2379495 C3.72115001,10.8778496 3.69776734,10.5150841 3.698,10.1519495 C3.7019123,7.20522266 5.26550476,4.48077066 7.8078247,2.99086345 C10.3501446,1.50095624 13.4912259,1.46827006 16.064,2.90494945 L17.718,2.06194945 L17.965,1.93594945 C16.3089273,0.734154244 14.3284007,0.0607333772 12.283,0.00394945486 L12.283,0.00394945486 Z M24,5.07794945 L5.055,14.7239495 L3.402,15.5679495 L0,17.3029495 L0,19.3749495 L3.378,17.6529495 L6.268,16.1799495 L20.238,9.06294945 C20.284835,9.42506124 20.3082171,9.78982151 20.308,10.1549495 C20.3061098,13.1051502 18.7407396,15.8333437 16.1947038,17.3237764 C13.648668,18.814209 10.5034238,18.8435783 7.93,17.4009495 L7.829,17.4549495 L6.036,18.3689495 C9.1249158,20.6112424 13.210382,20.9318351 16.6112475,19.1988053 C20.0121129,17.4657754 22.1537946,13.9719217 22.155,10.1549495 C22.155,9.89494945 22.145,9.63294945 22.125,9.37494945 C22.0690423,8.63218558 22.4644822,7.92843663 23.128,7.58994945 L24,7.14494945 L24,5.07794945 Z" id="Shape"></path>
        </g>
    </g>
</svg>