<svg width="197" height="64" viewBox="0 0 197 64" fill="none" xmlns="http://www.w3.org/2000/svg">
<path fill-rule="evenodd" clip-rule="evenodd" d="M73.2605 19.8806C76.9933 19.8806 80.6481 17.8945 80.6481 14.084C80.6481 10.2734 77.2856 9.0551 74.2139 8.41951L71.937 7.94246C70.2946 7.59898 69.0239 6.77845 69.0239 5.18876C69.0239 3.17632 71.4331 2.51579 72.8375 2.51579C74.6649 2.51579 76.7568 3.20421 77.3649 5.48086H80.2779C79.5361 1.61599 76.4909 0.00134311 72.9697 0.00134311C69.7393 0.00134311 65.9537 1.69525 65.9537 5.32233C65.9537 8.55162 68.548 10.087 71.2759 10.6433L73.6322 11.1204L73.7556 11.1468C75.7725 11.5769 77.6029 12.3783 77.6029 14.3232C77.6029 16.2682 75.8548 17.3676 73.3663 17.3676C70.6648 17.3676 68.8917 16.0172 68.335 13.397H65.369C65.8186 17.4204 68.8109 19.882 73.2591 19.882L73.2605 19.8806ZM88.5469 19.5371V17.3397H87.382C86.0203 17.3397 85.772 16.9771 85.7676 15.5636V7.38761H88.5749V5.29591H85.7676V1.64241H83.0132V5.29591H80.842V7.38761H83.0132V15.885C83.0132 18.8237 83.6493 19.5385 86.5344 19.5385H88.5469V19.5371ZM95.9962 19.8806C99.6232 19.8806 101.742 17.7096 102.404 15.3537H99.6232C99.04 16.7041 97.8751 17.5246 95.8905 17.5246C93.6664 17.5246 91.9976 15.8836 91.7332 13.2634H102.589C102.88 8.63089 100.312 5.03023 95.9169 5.03023C91.8654 5.03023 88.8995 7.96888 88.8995 12.3886C88.8995 16.5177 91.388 19.8806 95.9962 19.8806ZM99.729 11.0925H91.7861C92.1563 8.39309 93.7457 7.28046 95.8905 7.28046C98.1674 7.28046 99.6511 8.97437 99.7304 11.0925H99.729ZM106.808 19.5371V0.344822H104.054V19.5371H106.808ZM112.033 19.5371V0.344822H109.279V19.5371H112.033ZM118.741 19.8806C121.044 19.8806 122.66 19.0864 123.506 17.6568C123.559 18.5566 123.638 18.9808 123.744 19.5356H126.391C126.127 18.2644 125.995 16.5177 125.995 14.3996C125.995 13.7904 126.048 11.3288 126.048 10.9853C126.1 6.72414 123.982 4.9495 120.302 4.9495C117.046 4.9495 114.557 6.77551 114.318 9.79343H117.098C117.204 8.04668 118.29 7.06762 120.197 7.06762C121.945 7.06762 123.268 7.91457 123.268 10.429V10.7197C117.735 11.3024 113.657 12.2286 113.657 15.6957C113.657 18.2894 115.854 19.8776 118.741 19.8776V19.8806ZM119.35 17.7624C117.682 17.7624 116.649 16.9419 116.649 15.6443C116.649 13.7919 118.979 13.1827 123.4 12.7585V13.7904C123.4 16.6234 121.626 17.761 119.349 17.761L119.35 17.7624ZM130.957 19.5356V12.0701C130.957 9.07858 132.069 8.04668 134.187 8.04668C134.637 8.04668 135.114 8.0731 135.617 8.12594V5.26655C135.379 5.24013 135.088 5.24013 134.848 5.24013C133.074 5.26655 131.644 6.19277 130.903 7.80742V5.29298H128.201V19.5341H130.956L130.957 19.5356ZM74.5841 41.9395C78.8471 41.9395 82.051 39.6101 82.8722 35.3489H79.9592C79.376 37.8897 77.4971 39.4251 74.6634 39.4251C71.3273 39.4251 68.8917 36.6993 68.8917 31.9596C68.8917 27.2199 71.4066 24.5748 74.637 24.5748C77.4442 24.5748 79.2966 26.163 79.8798 28.651H82.7929C81.9981 24.4427 78.8736 22.0603 74.7707 22.0603C69.2634 22.0603 65.7951 25.9516 65.7951 31.961C65.7951 37.9705 69.0254 41.941 74.5856 41.941L74.5841 41.9395ZM90.4537 41.9395C93.8427 41.9395 97.3903 39.6629 97.3903 34.5283C97.3903 29.3938 93.8427 27.0892 90.4537 27.0892C87.0647 27.0892 83.5435 29.3659 83.5435 34.5283C83.5435 39.6908 87.0912 41.9395 90.4537 41.9395ZM90.4537 39.6101C88.3883 39.6101 86.4551 38.0483 86.4551 34.5269C86.4551 31.0055 88.3883 29.4172 90.4537 29.4172C92.5191 29.4172 94.4788 30.979 94.4788 34.5269C94.4788 38.0747 92.5456 39.6101 90.4537 39.6101ZM101.662 41.5961V33.9456C101.662 31.1126 102.748 29.3923 104.945 29.3923C107.434 29.3923 107.753 31.2976 107.753 33.3628V41.5961H110.507V33.9456C110.507 31.1126 111.619 29.3923 113.79 29.3923C116.279 29.3923 116.598 31.2976 116.598 33.3628V41.5961H119.352V32.623C119.352 29.3145 118.055 27.0907 114.719 27.0907C112.865 27.0907 111.197 27.832 110.006 29.6051C109.37 28.0169 108.073 27.0907 105.875 27.0907C103.836 27.0907 102.486 28.0169 101.665 29.4202V27.3549H98.9107V41.5961H101.665H101.662ZM124.336 41.5961V33.9456C124.336 31.1126 125.422 29.3923 127.619 29.3923C130.108 29.3923 130.427 31.2976 130.427 33.3628V41.5961H133.181V33.9456C133.181 31.1126 134.293 29.3923 136.464 29.3923C138.953 29.3923 139.272 31.2976 139.272 33.3628V41.5961H142.026V32.623C142.026 29.3145 140.729 27.0907 137.393 27.0907C135.539 27.0907 133.871 27.832 132.68 29.6051C132.044 28.0169 130.747 27.0907 128.549 27.0907C126.51 27.0907 125.16 28.0169 124.339 29.4202V27.3549H121.585V41.5961H124.339H124.336ZM148.705 41.9395C150.85 41.9395 152.227 41.0133 153.048 39.5836V41.5961H155.829V27.3549H153.074V35.0846C153.074 37.8912 151.936 39.6115 149.632 39.6115C147.144 39.6115 146.799 37.7327 146.799 35.6674V27.3549H144.044V36.4087C144.044 39.8493 145.341 41.941 148.704 41.941L148.705 41.9395ZM161.026 41.5961V33.9456C161.026 31.1126 162.191 29.3923 164.574 29.3923C167.143 29.3923 167.506 31.2609 167.513 33.3012V41.5961H170.267V32.623C170.267 29.3145 168.944 27.0907 165.502 27.0907C163.278 27.0907 161.849 28.0169 161.027 29.4202V27.3549H158.273V41.5961H161.027H161.026ZM175.227 25.4481V22.4038H172.472V25.4481H175.227ZM175.227 41.5961V27.3549H172.472V41.5961H175.227ZM183.788 41.5961V39.3987H182.623C181.247 39.3987 181.009 39.0288 181.009 37.5727V29.4466H183.816V27.3549H181.009V23.7014H178.254V27.3549H176.083V29.4466H178.254V37.944C178.254 40.8827 178.89 41.5975 181.776 41.5975H183.788V41.5961ZM185.862 46.2286C189.066 46.2286 189.914 45.276 191.079 41.9131L196.11 27.3534H193.25L189.887 37.969L186.446 27.3534H183.4L188.537 41.5682L188.432 41.8852C187.75 43.9021 187.121 44.0268 185.67 44.0298H184.539V46.2272H185.862V46.2286ZM69.6585 63.6551V55.0519H78.9793V52.5111H69.6585V47.0316H79.5611V44.4643H66.6397V63.6565H69.6585V63.6551ZM84.6805 63.9985C86.8253 63.9985 88.2017 63.0723 89.0229 61.6426V63.6551H91.8037V49.4139H89.0493V57.1436C89.0493 59.9502 87.9109 61.6705 85.6075 61.6705C83.119 61.6705 82.7738 59.7916 82.7738 57.7264V49.4139H80.0194V58.4676C80.0194 61.9083 81.3165 64 84.6791 64L84.6805 63.9985ZM97.0025 63.6551V56.0046C97.0025 53.1716 98.1674 51.4513 100.55 51.4513C103.144 51.4513 103.49 53.3566 103.49 55.4218V63.6551H106.244V54.682C106.244 51.3735 104.92 49.1497 101.479 49.1497C99.2545 49.1497 97.8252 50.0759 97.004 51.4792V49.4139H94.2496V63.6551H97.004H97.0025ZM113.613 63.9985C115.704 63.9985 117.187 63.0987 118.061 61.6426V63.6551H120.815V44.4628H118.061V51.5041C117.187 50.048 115.704 49.1482 113.613 49.1482C110.303 49.1482 107.469 51.9283 107.469 56.5594C107.469 61.1905 110.303 63.9985 113.613 63.9985ZM114.249 61.6955C111.972 61.6955 110.409 59.7638 110.409 56.5594C110.409 53.3551 111.97 51.4498 114.249 51.4498C116.367 51.4498 118.168 53.038 118.168 56.5594C118.168 60.0808 116.367 61.6955 114.249 61.6955ZM49.5053 10.5156V14.7944C48.9588 15.0704 48.4139 15.3478 47.8659 15.6223C47.0491 16.0304 46.4263 16.6219 46.0488 17.4645C45.8343 17.9445 45.6903 18.4391 45.6889 18.9661C45.6889 19.333 45.6991 19.6985 45.7226 20.064C45.7946 21.1547 45.7344 22.2423 45.6183 23.3256C45.5111 24.3238 45.3231 25.3087 45.0689 26.2819C44.7208 27.6118 44.2478 28.8976 43.6455 30.1336C42.8904 31.6866 41.9591 33.1265 40.8485 34.4491C40.2668 35.1434 39.6454 35.7995 38.9741 36.4043C38.8301 36.5349 38.7846 36.6553 38.8095 36.8431C38.8889 37.4244 38.952 38.0086 39.0167 38.5928C39.0784 39.1521 39.1327 39.7113 39.1929 40.2706C39.2576 40.8798 39.3251 41.4889 39.3898 42.0981C39.45 42.6573 39.5073 43.2166 39.5661 43.7758C39.6204 44.2881 39.6777 44.8004 39.7306 45.3127C39.7864 45.8514 39.8378 46.3901 39.8951 46.9273C39.9627 47.557 40.0347 48.1868 40.1022 48.8165C40.1698 49.4476 40.2315 50.0788 40.2976 50.7085C40.3652 51.3427 40.4372 51.9782 40.5033 52.6124C40.5694 53.2479 40.6281 53.885 40.6957 54.5206C40.7721 55.2384 40.8588 55.9532 40.9352 56.671C41.0468 57.7176 41.1526 58.7641 41.2628 59.8107C41.3612 60.7443 41.4596 61.6778 41.5595 62.6114C41.6094 63.0738 41.6638 63.5347 41.7167 63.9956H41.6241C41.5918 63.975 41.561 63.9486 41.5242 63.9369C41.2495 63.8488 40.969 63.7769 40.6987 63.6756C40.0479 63.4334 39.4015 63.178 38.7537 62.927C37.2509 62.3457 35.7496 61.763 34.2468 61.1817C32.8204 60.6298 31.394 60.0808 29.9691 59.5289C28.5912 58.9975 27.2132 58.4662 25.8368 57.9319C25.706 57.8805 25.5959 57.882 25.4666 57.9377C25.2022 58.0508 24.9304 58.1491 24.6616 58.2519C23.3556 58.7553 22.0497 59.2588 20.7438 59.7623C19.1455 60.3803 17.5472 61.0012 15.9475 61.6191C14.2052 62.2929 12.463 62.9652 10.7208 63.6374C10.5533 63.702 10.3844 63.7637 10.2154 63.8253C10.0568 63.8826 9.89813 63.9384 9.73947 63.9956H9.64693C9.69981 63.5347 9.75416 63.0723 9.80411 62.6114C9.90547 61.6734 10.0039 60.734 10.1038 59.7946C10.2316 58.5939 10.3609 57.3946 10.4887 56.1939C10.6106 55.0505 10.734 53.9055 10.8559 52.7621C10.9734 51.6538 11.088 50.5456 11.2055 49.4374C11.3466 48.109 11.4905 46.7805 11.6315 45.4521C11.7505 44.3336 11.8636 43.2151 11.9826 42.0966C12.0913 41.0764 12.203 40.0548 12.3132 39.0347C12.3499 38.6956 12.3837 38.3565 12.4145 38.0174C12.4219 37.9426 12.4424 37.9117 12.5247 37.8839C12.6834 37.831 12.8317 37.7459 12.983 37.6681C14.0745 37.1118 15.1645 36.5525 16.2574 35.9991C16.3074 35.9742 16.3985 35.9874 16.4513 36.0167C17.4429 36.5554 18.4756 37.0002 19.5524 37.3422C20.6204 37.6813 21.7104 37.9103 22.8209 38.0394C23.8757 38.1613 24.9348 38.1818 25.9925 38.1011C27.9683 37.9499 29.8677 37.4831 31.6849 36.6817C33.1495 36.0343 34.5024 35.205 35.732 34.1819C37.53 32.6847 38.9682 30.8939 40.0391 28.811C40.8118 27.3094 41.3509 25.7285 41.6535 24.0698C41.8812 22.8192 41.9899 21.5554 41.9121 20.2813C41.8827 19.7984 41.8357 19.3154 41.7945 18.8325C41.7931 18.8076 41.7828 18.7841 41.7725 18.7474C27.8508 25.8357 13.9379 32.9122 0.002938 39.999V39.8376C0.002938 38.515 0.004407 37.1925 0 35.8685C0 35.7525 0.038194 35.6982 0.139555 35.6468C7.73576 31.7878 15.3305 27.9244 22.9252 24.0625L31.5615 19.6736C33.0011 18.9411 34.4393 18.2101 35.8789 17.4762C38.5231 16.1287 41.1599 14.7709 43.8027 13.422C45.6521 12.4781 47.506 11.5417 49.3569 10.6008C49.4069 10.5758 49.4554 10.545 49.5038 10.5156H49.5053ZM35.2193 39.1961C28.9569 42.5575 22.5785 42.8511 16.04 40.0945C15.3995 46.1376 14.7576 52.1793 14.1156 58.2372C14.1817 58.2122 14.2243 58.1976 14.2684 58.1814C15.6742 57.6398 17.0801 57.0981 18.4859 56.5565C20.8201 55.6552 23.1544 54.7554 25.4872 53.8498C25.6297 53.794 25.7457 53.8028 25.8823 53.8571C27.626 54.5367 29.3727 55.2119 31.1178 55.8871C32.8601 56.5609 34.6023 57.2332 36.346 57.9055C36.6427 58.0199 36.9395 58.133 37.2509 58.2533C36.5722 51.8843 35.8965 45.5358 35.2222 39.1961H35.2193ZM26.0101 0.0424432C30.0381 0.303722 33.7003 1.59691 36.9924 3.93667C37.0173 3.95429 37.0394 3.9719 37.0776 4.00126C37.0232 4.03208 36.9806 4.05851 36.9366 4.08052C35.7232 4.69849 34.5083 5.31499 33.2964 5.93443C33.1994 5.98434 33.126 5.99021 33.0261 5.93443C31.4131 5.04931 29.6988 4.44015 27.8904 4.10841C26.4611 3.84567 25.0215 3.76493 23.5701 3.86768C21.5267 4.013 19.5715 4.50327 17.7059 5.34435C15.7492 6.22653 14.0143 7.43018 12.5129 8.96409C10.5548 10.9618 9.16509 13.2987 8.33952 15.9717C8.01781 17.0138 7.81214 18.081 7.69169 19.1642C7.56095 20.3297 7.56682 21.4937 7.66818 22.6607C7.68434 22.8442 7.71225 23.0277 7.73723 23.2243C7.79599 23.1965 7.8474 23.1744 7.89588 23.1495C11.6844 21.2236 15.4745 19.3008 19.2615 17.3705C23.6553 15.1306 28.0432 12.8818 32.437 10.6419C38.1015 7.75457 43.7703 4.87317 49.4363 1.98882C49.4598 1.97708 49.4833 1.96827 49.5068 1.958V6.23681C46.0723 7.98356 42.6377 9.72884 39.2047 11.4771C35.4587 13.3823 31.7128 15.2862 27.9698 17.1944C18.7004 21.9165 9.43539 26.6415 0.170404 31.3651C0.121927 31.39 0.070512 31.4121 0.004407 31.4429V31.2741C0.004407 29.9559 0.005876 28.6393 0.001469 27.3211C0.001469 27.1978 0.041132 27.1421 0.148369 27.0877C0.725686 26.8 1.31182 26.527 1.86857 26.2026C3.16863 25.4467 3.82675 24.3018 3.82087 22.7957C3.81793 22.1455 3.75623 21.4952 3.76358 20.8449C3.80618 16.8157 4.8859 13.0873 7.06149 9.69068C9.34431 6.12672 12.4395 3.49778 16.3059 1.77892C17.9585 1.04352 19.6846 0.544451 21.4694 0.261154C22.9752 0.023361 24.4897 -0.0573713 26.0116 0.0409753L26.0101 0.0424432Z" fill="#F0F0EE"/>
</svg>
