<?xml version="1.0" standalone="no"?>
<!DOCTYPE svg PUBLIC "-//W3C//DTD SVG 20010904//EN"
 "http://www.w3.org/TR/2001/REC-SVG-20010904/DTD/svg10.dtd">
<svg version="1.0" xmlns="http://www.w3.org/2000/svg"
 width="700.000000pt" height="700.000000pt" viewBox="0 0 700.000000 700.000000"
 preserveAspectRatio="xMidYMid meet">
<metadata>
Created by potrace 1.14, written by Peter Selinger 2001-2017
</metadata>
<g transform="translate(0.000000,700.000000) scale(0.100000,-0.100000)"
fill="#000000" stroke="none">
<path d="M3300 6457 c-3 -3 -41 -7 -85 -11 -44 -4 -93 -9 -110 -11 -16 -3 -46
-7 -65 -10 -264 -38 -601 -145 -851 -271 -143 -71 -367 -207 -449 -271 -164
-128 -323 -272 -409 -367 -14 -16 -35 -38 -46 -50 -163 -168 -404 -549 -505
-796 -12 -30 -29 -70 -37 -88 -22 -51 -90 -260 -113 -353 -23 -89 -23 -88 -36
-159 -4 -25 -8 -47 -9 -50 -4 -17 -16 -92 -21 -135 -3 -27 -9 -59 -12 -70 -2
-11 -6 -171 -7 -355 -2 -313 -4 -339 -24 -394 -59 -165 -144 -250 -364 -362
l-157 -79 0 -303 0 -303 373 189 c204 105 460 235 567 290 107 54 348 177 535
272 187 95 426 217 530 270 105 54 330 168 500 255 171 87 423 215 560 285
681 347 797 406 1015 517 129 66 366 187 525 268 160 81 400 204 535 273 545
278 1100 560 1560 794 113 58 214 110 225 116 11 7 32 16 48 22 l27 10 0 305
0 306 -247 -127 c-377 -193 -677 -346 -1008 -514 -165 -84 -403 -205 -530
-270 -126 -65 -365 -186 -530 -270 -165 -84 -408 -208 -540 -275 -132 -67
-379 -193 -550 -280 -337 -171 -696 -354 -1040 -530 -121 -62 -344 -176 -495
-252 -151 -77 -427 -218 -613 -313 -186 -94 -341 -169 -344 -166 -11 11 -15
65 -18 271 -2 116 0 237 5 270 5 33 11 83 15 110 33 266 163 646 288 842 15
24 27 45 27 49 0 12 131 201 197 284 62 77 243 266 304 315 223 183 416 300
654 400 177 74 406 138 580 161 28 3 59 8 70 11 38 10 460 11 530 2 206 -26
243 -34 410 -81 142 -39 262 -86 402 -154 62 -29 116 -54 121 -54 7 0 537 266
550 275 2 2 -41 32 -95 67 -412 272 -826 422 -1333 484 -51 6 -505 16 -510 11z"/>
<path d="M6795 4877 c-110 -57 -371 -190 -580 -296 -209 -107 -461 -235 -560
-286 -99 -51 -351 -179 -560 -285 -209 -106 -470 -239 -580 -295 -323 -165
-680 -347 -1635 -832 -157 -80 -402 -205 -545 -278 -418 -213 -771 -393 -1055
-537 -146 -75 -362 -185 -480 -245 -118 -61 -347 -178 -507 -259 l-293 -149 0
-303 0 -302 233 118 c248 128 610 312 1062 542 154 78 384 195 510 260 127 65
365 186 530 270 165 84 404 206 530 270 127 65 365 186 530 270 165 84 413
210 550 280 138 70 367 187 510 260 143 73 364 185 490 250 783 399 944 480
953 480 6 0 10 -8 10 -17 0 -10 3 -56 6 -103 12 -139 6 -455 -9 -480 -1 -3 -6
-32 -10 -65 -17 -152 -81 -388 -152 -560 -160 -387 -393 -699 -734 -980 -249
-206 -605 -380 -944 -460 -102 -25 -112 -27 -225 -44 -457 -71 -959 8 -1398
220 -67 32 -126 59 -131 59 -11 0 -323 -159 -336 -171 -5 -5 -15 -9 -23 -9 -8
0 -28 -10 -45 -22 -18 -13 -33 -22 -35 -20 -4 5 -102 -48 -102 -56 0 -17 261
-177 420 -257 179 -90 492 -202 643 -231 12 -2 33 -6 47 -9 14 -3 36 -7 50
-10 14 -3 36 -7 50 -10 14 -2 45 -7 70 -10 25 -3 52 -8 60 -10 84 -22 601 -27
735 -7 44 7 97 14 118 17 223 29 557 132 803 250 319 152 561 322 815 575 86
85 174 178 195 205 21 28 41 52 45 55 3 3 30 39 61 80 150 202 317 514 402
750 70 197 131 443 151 615 4 32 9 68 12 80 3 11 7 169 8 350 2 351 5 377 55
476 33 64 98 141 157 185 29 22 116 71 193 109 l140 70 0 303 c0 166 -1 302
-2 302 -2 -1 -93 -47 -203 -103z"/>
</g>
</svg>
