<?xml version="1.0" standalone="no"?>
<!DOCTYPE svg PUBLIC "-//W3C//DTD SVG 20010904//EN"
 "http://www.w3.org/TR/2001/REC-SVG-20010904/DTD/svg10.dtd">
<svg version="1.0" xmlns="http://www.w3.org/2000/svg"
 width="768.000000pt" height="768.000000pt" viewBox="0 0 768.000000 768.000000"
 preserveAspectRatio="xMidYMid meet">
<metadata>
Created by potrace 1.14, written by Peter Selinger 2001-2017
</metadata>
<g transform="translate(0.000000,768.000000) scale(0.100000,-0.100000)"
fill="#000000" stroke="none">
<path d="M3628 7084 c-2 -1 -39 -6 -83 -9 -44 -3 -91 -8 -105 -11 -14 -2 -47
-7 -75 -10 -27 -4 -53 -8 -57 -10 -3 -2 -27 -7 -52 -10 -37 -4 -151 -31 -336
-78 -46 -12 -209 -69 -300 -106 -94 -37 -327 -147 -340 -160 -3 -3 -14 -10
-25 -16 -87 -47 -129 -73 -223 -136 -199 -133 -310 -225 -492 -408 -69 -69
-143 -147 -165 -175 -22 -27 -45 -54 -51 -60 -6 -5 -26 -30 -45 -55 -18 -25
-37 -49 -42 -55 -27 -33 -107 -151 -107 -157 0 -3 -6 -13 -13 -20 -35 -35
-189 -318 -257 -473 -51 -114 -134 -350 -146 -414 -3 -13 -10 -34 -16 -45 -6
-12 -10 -21 -8 -21 1 0 -7 -43 -18 -95 -12 -52 -23 -106 -26 -120 -13 -79 -16
-98 -21 -130 -3 -19 -8 -57 -11 -85 -3 -27 -8 -66 -11 -85 -8 -52 -11 -498 -4
-550 18 -130 -51 -335 -147 -435 -77 -80 -104 -98 -304 -201 l-148 -75 0 -330
c0 -181 3 -329 6 -329 3 0 137 67 297 149 161 82 406 207 544 277 139 71 346
177 460 235 380 193 827 421 933 475 58 30 110 54 117 54 6 0 13 4 15 9 2 5
30 22 63 37 33 16 129 64 212 107 84 42 156 77 159 76 4 0 10 3 13 8 3 5 74
42 156 83 83 41 153 79 156 83 3 5 9 8 13 8 3 -1 54 23 114 53 59 30 168 85
242 123 74 37 138 73 142 78 4 6 8 6 8 1 0 -5 6 -4 13 2 6 5 156 83 332 172
176 90 353 180 394 202 41 21 80 38 87 38 7 0 14 4 16 8 2 5 68 41 148 81 150
76 484 246 935 476 143 73 350 178 460 234 110 55 205 104 210 108 6 5 184 96
395 202 212 107 466 236 565 287 99 51 246 125 327 166 l147 73 1 332 c0 313
-1 332 -17 325 -31 -13 -205 -102 -270 -137 -35 -19 -63 -32 -63 -29 0 3 -12
-3 -27 -13 -16 -11 -57 -34 -93 -52 -36 -18 -140 -71 -231 -117 -92 -46 -171
-84 -177 -84 -6 0 -12 -4 -14 -8 -1 -5 -79 -47 -173 -94 -93 -48 -271 -138
-395 -201 -124 -63 -308 -157 -410 -209 -584 -298 -888 -453 -992 -506 -65
-33 -118 -57 -118 -54 0 4 -4 2 -8 -4 -4 -6 -72 -44 -152 -84 -80 -40 -262
-132 -405 -205 -143 -73 -366 -186 -495 -251 -129 -66 -236 -122 -238 -126 -2
-5 -10 -8 -17 -8 -7 0 -41 -16 -74 -34 -34 -19 -61 -32 -61 -28 0 4 -4 3 -8
-3 -4 -5 -63 -39 -132 -73 -69 -35 -160 -81 -202 -103 -43 -22 -80 -38 -82
-37 -2 2 -12 -4 -22 -13 -11 -9 -30 -20 -43 -24 -14 -4 -29 -11 -35 -16 -6 -5
-99 -53 -206 -107 -200 -102 -801 -408 -855 -436 -16 -9 -35 -16 -42 -16 -6 0
-13 -3 -15 -8 -1 -4 -61 -36 -133 -72 -71 -36 -160 -81 -197 -102 -38 -20 -68
-33 -69 -30 0 4 -3 16 -5 27 -17 73 -24 421 -11 535 4 30 9 78 12 105 8 88 24
174 51 290 3 11 7 31 10 44 3 13 9 32 15 43 5 10 7 18 5 18 -8 0 94 290 110
314 7 12 14 26 15 31 2 15 90 199 97 205 4 3 16 23 27 45 32 66 182 284 257
375 72 86 322 340 336 340 4 0 23 15 43 33 19 17 44 39 56 47 11 8 50 35 85
60 152 109 349 217 518 284 52 21 102 42 111 46 13 7 48 18 109 35 3 1 25 7
50 15 25 7 50 14 55 16 6 1 28 7 50 13 47 12 232 48 290 55 205 27 444 27 700
1 60 -7 241 -43 325 -66 41 -12 80 -22 85 -23 6 -1 42 -13 80 -26 39 -13 72
-25 75 -25 3 -1 18 -7 33 -13 16 -7 30 -12 32 -12 7 0 135 -60 228 -106 l88
-44 265 134 c145 74 270 138 276 143 7 4 15 8 18 9 16 3 40 17 40 24 0 7 -192
140 -203 140 -3 0 -25 13 -49 29 -24 16 -95 55 -158 88 -97 50 -156 76 -345
154 -48 20 -175 62 -225 76 -96 25 -254 65 -275 69 -53 9 -221 35 -254 39 -20
2 -61 7 -91 11 -55 7 -506 14 -512 8z"/>
<path d="M7530 5388 c-228 -118 -455 -232 -459 -229 -2 2 -7 -1 -10 -6 -3 -5
-116 -64 -251 -132 -135 -68 -249 -127 -255 -132 -5 -5 -17 -9 -26 -9 -10 0
-19 -4 -21 -8 -1 -5 -93 -54 -203 -109 -187 -94 -457 -231 -853 -433 -92 -47
-333 -170 -537 -274 -203 -103 -376 -192 -382 -198 -7 -6 -13 -7 -13 -2 0 5
-4 5 -8 -1 -4 -5 -90 -52 -192 -103 -102 -51 -249 -126 -327 -166 -79 -41
-143 -71 -143 -67 0 3 -4 1 -8 -4 -4 -6 -113 -64 -242 -129 -129 -65 -320
-162 -425 -216 -104 -53 -316 -161 -470 -239 -154 -79 -287 -147 -295 -152 -8
-5 -31 -16 -50 -24 -19 -8 -134 -66 -255 -129 -121 -62 -335 -171 -475 -242
-140 -71 -256 -132 -258 -136 -2 -5 -9 -8 -15 -8 -7 0 -25 -7 -42 -16 -63 -33
-531 -272 -760 -388 -132 -66 -242 -124 -245 -127 -5 -5 -38 -19 -50 -21 -3
-1 -21 -10 -40 -22 -19 -12 -76 -41 -127 -66 l-92 -45 0 -332 c-1 -312 0 -332
16 -326 10 3 23 9 28 13 6 4 140 74 300 155 160 81 359 183 443 226 83 43 152
75 152 71 0 -4 4 -2 8 3 4 6 72 44 152 85 851 433 854 435 863 432 4 -1 7 2 7
6 0 4 33 23 73 42 39 19 74 38 75 42 2 5 10 8 17 8 8 0 37 14 65 30 28 17 57
30 65 30 7 0 15 3 17 8 2 4 107 59 233 123 127 64 266 135 310 158 44 22 86
41 93 41 6 0 12 4 12 10 0 5 12 13 27 16 16 4 30 10 33 14 3 4 57 33 120 65
154 77 669 339 965 490 269 137 625 319 1035 527 151 77 392 200 535 273 143
73 361 184 485 246 124 63 227 117 228 122 2 4 10 7 17 7 16 0 77 31 86 44 4
4 9 3 13 -2 26 -42 27 -554 2 -682 -2 -14 -7 -45 -10 -70 -6 -46 -11 -75 -21
-120 -4 -14 -8 -36 -11 -50 -3 -14 -7 -32 -9 -40 -2 -8 -4 -17 -5 -20 -1 -3
-3 -9 -4 -15 -6 -37 -20 -82 -28 -92 -6 -7 -8 -13 -5 -13 21 0 -168 -460 -198
-482 -5 -4 -6 -8 -1 -8 5 0 3 -8 -6 -17 -8 -10 -20 -29 -26 -43 -7 -14 -21
-38 -32 -55 -11 -16 -25 -42 -31 -57 -6 -16 -14 -28 -17 -28 -4 0 -23 -25 -42
-55 -19 -30 -38 -55 -42 -55 -5 0 -8 -7 -8 -15 0 -8 -3 -15 -8 -15 -4 0 -14
-11 -22 -24 -63 -101 -346 -391 -455 -466 -12 -8 -28 -21 -36 -28 -28 -26
-136 -99 -228 -156 -84 -52 -301 -167 -326 -173 -5 -1 -50 -18 -100 -39 -49
-20 -97 -37 -105 -39 -8 -2 -28 -8 -45 -15 -32 -12 -207 -60 -240 -65 -11 -2
-45 -9 -75 -15 -30 -6 -68 -13 -85 -15 -16 -3 -41 -7 -55 -10 -59 -12 -198
-19 -370 -19 -165 0 -215 2 -350 19 -74 9 -229 41 -340 70 -34 9 -186 56 -200
62 -8 3 -19 7 -25 8 -23 6 -217 92 -294 132 l-84 43 -266 -136 c-146 -75 -270
-139 -276 -142 -5 -4 -12 -7 -15 -7 -3 0 -14 -6 -25 -13 -20 -12 -20 -12 5
-32 22 -17 150 -100 205 -133 11 -7 31 -19 45 -28 33 -22 249 -130 325 -164
138 -61 423 -158 530 -180 17 -4 55 -13 88 -21 4 -1 8 -2 10 -4 1 -1 11 -3 22
-4 11 -2 83 -13 159 -25 189 -30 247 -33 496 -34 193 0 329 6 400 18 14 3 45
7 70 11 25 3 53 8 63 10 10 3 32 7 50 10 18 2 57 9 87 15 30 7 62 13 70 14 8
1 22 5 30 8 12 5 52 16 145 41 8 2 95 29 135 41 3 1 14 5 25 9 11 5 27 10 35
14 8 3 17 6 20 6 25 5 203 82 310 134 133 65 357 198 431 256 14 12 36 28 49
36 35 24 126 95 188 147 62 52 357 343 347 343 -5 0 34 46 73 86 6 7 12 15 12
18 0 3 8 15 18 25 22 25 32 38 62 81 13 19 27 37 30 40 8 7 90 130 90 135 0 2
17 30 38 62 21 32 44 72 52 88 8 17 17 32 20 35 14 12 123 247 169 360 65 164
129 378 166 550 8 41 45 283 51 340 6 58 9 429 5 600 -3 129 33 241 112 350
79 108 115 134 345 250 l142 72 0 329 c0 181 -3 329 -7 328 -5 0 -69 -32 -143
-71z"/>
</g>
</svg>
